<?xml version="1.0" standalone="no"?>
<!DOCTYPE svg PUBLIC "-//W3C//DTD SVG 20010904//EN"
 "http://www.w3.org/TR/2001/REC-SVG-20010904/DTD/svg10.dtd">
<svg version="1.0" xmlns="http://www.w3.org/2000/svg"
 width="260.000000pt" height="260.000000pt" viewBox="0 0 260.000000 260.000000"
 preserveAspectRatio="xMidYMid meet">
<metadata>
Created by potrace 1.11, written by Peter Selinger 2001-2013
</metadata>
<g transform="translate(0.000000,260.000000) scale(0.100000,-0.100000)"
fill="#000000" stroke="none">
<path d="M569 2306 c-1 0 -2 -455 -3 -1009 -1 -889 1 -1010 14 -1017 23 -11
40 -1 40 26 0 19 5 24 25 24 24 0 27 4 29 40 1 9 13 16 29 18 21 3 27 9 27 28
0 23 12 29 46 25 5 0 10 11 10 27 -1 22 4 28 26 30 21 3 27 9 30 30 2 16 8 26
17 24 19 -4 41 17 34 34 -3 7 2 17 11 20 9 3 14 9 11 13 -2 4 2 8 10 8 8 0 12
-4 9 -9 -3 -4 0 -8 5 -8 10 0 16 38 12 63 -1 5 4 5 11 1 7 -5 19 -9 26 -10 11
-2 11 0 0 14 -8 10 -9 13 -1 9 6 -4 14 -3 18 3 3 5 0 10 -7 10 -23 0 15 20 39
20 22 0 25 13 9 39 -6 10 -5 12 2 7 8 -4 12 0 12 11 0 10 4 14 8 8 4 -5 15
-11 25 -13 13 -2 17 4 17 28 0 27 3 30 30 30 32 0 41 16 13 23 -17 4 -17 5 0
6 9 0 17 7 17 15 0 7 8 20 18 27 15 13 16 12 3 -3 -12 -16 -11 -18 15 -18 16
0 24 4 18 8 -5 4 -10 17 -10 29 0 12 2 20 5 18 2 -3 10 0 18 6 7 6 13 8 13 3
0 -5 20 -8 44 -7 34 1 44 -2 40 -12 -3 -7 0 -16 6 -20 9 -6 9 -10 -1 -16 -10
-6 -7 -9 11 -9 78 -1 76 0 58 -11 -27 -15 -22 -37 10 -41 22 -2 27 -8 27 -30
-1 -17 5 -28 13 -28 7 0 11 4 8 8 -2 4 3 8 13 8 11 0 18 -9 19 -24 3 -33 12
-44 31 -39 11 2 21 -5 28 -19 6 -13 7 -22 2 -18 -5 3 -9 0 -9 -5 0 -6 4 -11 9
-11 5 0 18 -3 28 -7 16 -6 17 -5 3 13 -14 18 -14 18 3 5 9 -7 17 -27 17 -43 0
-22 4 -29 15 -24 19 7 45 -19 40 -42 -2 -12 3 -18 17 -19 14 -1 18 3 14 15 -4
9 3 6 14 -8 10 -14 17 -33 14 -42 -3 -10 0 -18 6 -18 6 0 8 5 4 11 -3 6 5 3
20 -6 14 -9 23 -21 20 -26 -3 -5 0 -9 5 -9 6 0 11 -5 11 -11 0 -5 -4 -7 -10
-4 -5 3 -7 0 -4 -9 10 -25 32 -27 28 -3 -2 12 -2 16 2 9 3 -6 10 -10 15 -6 5
3 8 0 7 -8 -2 -8 5 -12 17 -10 12 2 16 0 9 -5 -6 -4 -10 -16 -8 -26 1 -9 -2
-15 -7 -11 -5 3 -7 10 -4 15 4 5 -1 9 -11 9 -14 0 -15 -2 -3 -17 7 -10 14 -19
15 -21 1 -1 8 0 17 4 10 3 13 12 9 22 -5 14 -4 15 10 2 9 -9 13 -19 8 -24 -15
-15 9 -47 32 -44 14 2 22 -3 24 -15 5 -37 13 -45 33 -40 l21 5 0 1013 0 1013
-710 0 c-390 0 -711 -1 -711 -2z m454 -1561 c-7 -21 -12 -19 -10 4 0 11 5 18
9 15 4 -3 5 -11 1 -19z m521 17 c3 -5 -1 -9 -9 -9 -8 0 -12 4 -9 9 3 4 7 8 9
8 2 0 6 -4 9 -8z m-670 -180 c3 -5 -1 -9 -9 -9 -8 0 -12 4 -9 9 3 4 7 8 9 8 2
0 6 -4 9 -8z"/>
</g>
</svg>
